<svg width="32" height="32" viewBox="0 0 32 32" fill="none" xmlns="http://www.w3.org/2000/svg">
<circle cx="16" cy="16" r="16" fill="#F5F6F7"/>
<path d="M19.2 9.33333H17.4667C15.3333 9.33333 14 10.6667 14 12.8V15.5H16.96L15.58 14.12C15.48 14.02 15.4333 13.8933 15.4333 13.7667C15.4333 13.64 15.48 13.5133 15.58 13.4133C15.7733 13.22 16.0933 13.22 16.2867 13.4133L18.52 15.6467C18.7133 15.84 18.7133 16.16 18.52 16.3533L16.2867 18.5867C16.0933 18.78 15.7733 18.78 15.58 18.5867C15.3867 18.3933 15.3867 18.0733 15.58 17.88L16.96 16.5H14V19.2C14 21.3333 15.3333 22.6667 17.4667 22.6667H19.1933C21.3267 22.6667 22.66 21.3333 22.66 19.2V12.8C22.6667 10.6667 21.3333 9.33333 19.2 9.33333Z" fill="#5C5C5C"/>
<path d="M9.83337 15.5C9.56004 15.5 9.33337 15.7267 9.33337 16C9.33337 16.2733 9.56004 16.5 9.83337 16.5H14V15.5H9.83337Z" fill="#5C5C5C"/>
</svg>
