<svg width="24" height="24" viewBox="0 0 24 24" fill="none" xmlns="http://www.w3.org/2000/svg">
<path d="M10.7256 13.5992H11.5277L11.1254 12.6635L10.7256 13.5992Z" fill="#5C5C5C"/>
<path fill-rule="evenodd" clip-rule="evenodd" d="M16.3732 2H7.62707C3.50702 2 2 3.50702 2 7.62695V16.3732C2 20.493 3.50702 22 7.62695 22H16.3705C20.4905 22 22.0002 20.493 22.0002 16.3732V7.62695C22.0002 3.50702 20.4932 2 16.3732 2ZM10.5282 14.0706L10.2902 14.615H9.74863L10.9005 12.0017H11.3687L12.516 14.615H11.9597L11.7249 14.0706H10.5282ZM19.2447 14.6133H19.7682V12.0019H19.2447V14.6133ZM17.161 13.4912H18.1259V13.0152H17.161V12.48H18.5618V12.0033H16.6376V14.6149H18.6123V14.1386H17.161V13.4912ZM15.0808 13.7998L14.4872 12.0016H14.0541L13.4605 13.7998L12.8828 12.0028H12.3182L13.2296 14.6165H13.6688L14.2634 12.8997L14.8578 14.6165H15.3008L16.2099 12.0028H15.6599L15.0808 13.7998ZM8.94922 13.4985C8.94922 13.9235 8.73824 14.1508 8.35486 14.1508C7.96951 14.1508 7.75718 13.9171 7.75718 13.4803V12.0032H7.22654V13.4985C7.22654 14.2338 7.6353 14.6557 8.34771 14.6557C9.06715 14.6557 9.47961 14.226 9.47961 13.4767V12.0017H8.94922V13.4985ZM5.96069 12.0017H6.49108V14.6166H5.96069V13.5547H4.76274V14.6166H4.2321V12.0017H4.76274V13.0566H5.96069V12.0017ZM8.67102 5.34332C8.67102 7.179 10.1645 8.67246 12.0002 8.67246C13.8358 8.67246 15.3293 7.179 15.3293 5.34332H14.8589C14.8589 6.9196 13.5766 8.20208 12.0002 8.20208C10.4239 8.20208 9.1414 6.9196 9.1414 5.34332H8.67102Z" fill="#5C5C5C"/>
</svg>
