<svg width="100" height="30" viewBox="0 0 100 30" fill="none" xmlns="http://www.w3.org/2000/svg">
<path d="M12.9773 30C12.9773 30 0 26.1812 0 7.24919V0H25.9547V7.24919C25.9547 25.4693 12.9773 30 12.9773 30Z" fill="#4FB84E"/>
<path d="M20.4854 7.31392H10.0323V13.3333H20.4854V15.1456C20.4854 18.1877 19.6116 20.6473 15.0162 20.6473H10.0323V28.5761C11.7476 29.644 12.9773 30 12.9773 30C12.9773 30 25.9547 25.4693 25.9547 7.24919V1.77994C25.9547 4.82201 24.6278 7.24919 20.4854 7.31392Z" fill="#055532"/>
<path d="M33.1715 17.8317H35.8576C37.3139 17.8317 38.3495 18.479 38.3495 19.7411C38.3495 20.356 38.0582 20.9709 37.5081 21.2945V21.3269C38.3495 21.5858 38.6408 22.3301 38.6408 22.9773C38.6408 24.5631 37.3139 25.1456 35.8576 25.1456H33.1715V17.8317ZM35.89 20.6473C36.343 20.6473 36.5372 20.3236 36.5372 19.9676C36.5372 19.644 36.343 19.3528 35.8576 19.3528H34.9838V20.6473H35.89ZM36.0194 23.5922C36.5372 23.5922 36.7961 23.2362 36.7961 22.8155C36.7961 22.3948 36.5372 22.0712 36.0194 22.0712H34.9514V23.5922H36.0194Z" fill="black"/>
<path d="M41.3916 17.8317H43.2686L45.7605 25.1133H43.9158L43.4628 23.5922H41.1974L40.7443 25.1133H38.8997L41.3916 17.8317ZM43.0421 22.1683L42.6213 20.7443C42.4919 20.2913 42.3301 19.4822 42.3301 19.4822H42.2977C42.2977 19.4822 42.1359 20.2913 42.0065 20.7443L41.5857 22.1683H43.0421Z" fill="black"/>
<path d="M46.4725 17.8317H48.2848L50.2912 21.2298C50.5825 21.7152 50.9061 22.4595 50.9061 22.4595H50.9385C50.9385 22.4595 50.8414 21.6828 50.8414 21.2298V17.8317H52.6213V25.1133H50.8414L48.8026 21.7152C48.5113 21.2298 48.1877 20.4854 48.1877 20.4854H48.1553C48.1553 20.4854 48.2524 21.2621 48.2524 21.7152V25.1133H46.4725V17.8317Z" fill="black"/>
<path d="M55.9547 17.8317V20.6472H56.699L58.22 17.8317H60.1294L58.1553 21.3269V21.3592L60.2265 25.1456H58.22L56.6666 22.2006H55.9223V25.1456H54.1424V17.8317H55.9547Z" fill="black"/>
<path d="M33.1715 14.5309V4.30437H39.4498V5.04871C39.4498 5.82541 38.8349 6.4403 38.0582 6.4403H35.6634V8.57622H38.7702V9.28819C38.7702 10.0649 38.123 10.7121 37.3463 10.7121H35.6634V14.4986H33.1715V14.5309Z" fill="black"/>
<path d="M43.3655 8.93221H44.4658C44.8865 8.93221 45.2101 8.83512 45.4367 8.60858C45.6632 8.38205 45.7926 8.09078 45.7926 7.67007C45.7926 7.11991 45.5985 6.73156 45.1778 6.56975C44.9512 6.47266 44.6276 6.4403 44.2392 6.4403H43.3978V8.93221H43.3655ZM40.8412 4.30437H44.4011C45.3072 4.30437 45.9545 4.40146 46.3752 4.56328C46.9577 4.78981 47.4431 5.1458 47.7668 5.6636C48.0904 6.1814 48.2522 6.79628 48.2522 7.54062C48.2522 8.12315 48.1227 8.67331 47.8638 9.19111C47.6049 9.70891 47.2166 10.0973 46.7312 10.3562V10.3885C46.8282 10.518 46.9577 10.7121 47.1195 11.0034L49.0936 14.5956H46.3428L44.5305 11.1329H43.3655V14.5956H40.8412V4.30437Z" fill="black"/>
<path d="M50.2587 14.5309V4.30437H56.6988V6.4403H52.7829V8.31732H55.8897V10.4532H52.7829V12.395H56.893V14.5309H50.2587Z" fill="black"/>
<path d="M58.4789 14.5309V4.30437H64.8866V6.4403H61.0032V8.31732H64.1099V10.4532H61.0032V12.395H65.1132V14.5309H58.4789Z" fill="black"/>
<path d="M69.1908 12.395H70.2264C71.1001 12.395 71.7798 12.1361 72.2652 11.6183C72.7506 11.1005 73.0095 10.3562 73.0095 9.38528C73.0095 8.44677 72.7506 7.70243 72.2652 7.18463C71.7798 6.66684 71.1001 6.4403 70.2264 6.4403H69.1908V12.395ZM66.6989 14.5309V4.30437H70.3235C71.9416 4.30437 73.2361 4.75745 74.1746 5.6636C75.1131 6.56975 75.5985 7.79952 75.5985 9.41764C75.5985 11.0358 75.1131 12.2655 74.1746 13.1717C73.2361 14.0778 71.9416 14.5309 70.3235 14.5309H66.6989Z" fill="black"/>
<path d="M79.2878 9.35311C79.2878 10.2269 79.5468 10.9712 80.0646 11.5538C80.5824 12.1363 81.262 12.4275 82.0387 12.4275C82.8477 12.4275 83.495 12.1363 84.0128 11.5538C84.5306 10.9712 84.7895 10.2269 84.7895 9.35311C84.7895 8.51169 84.5306 7.79971 84.0128 7.24955C83.495 6.69939 82.8477 6.40813 82.0387 6.40813C81.2296 6.40813 80.5824 6.69939 80.0646 7.24955C79.5468 7.79971 79.2878 8.51169 79.2878 9.35311ZM76.6989 9.35311C76.6989 7.86444 77.1843 6.63466 78.1875 5.63143C79.1908 4.62819 80.4853 4.14275 82.0387 4.14275C83.5921 4.14275 84.8866 4.62819 85.8898 5.63143C86.893 6.63466 87.3785 7.86444 87.3785 9.35311C87.3785 10.8741 86.893 12.1686 85.8898 13.1719C84.8866 14.2075 83.5921 14.6929 82.0387 14.6929C80.4853 14.6929 79.1908 14.1751 78.1875 13.1719C77.1843 12.1363 76.6989 10.8741 76.6989 9.35311Z" fill="black"/>
<path d="M88.5758 14.5309L89.4172 4.30437H92.1357L93.6244 8.64095L94.1422 10.3238H94.1745C94.3687 9.64418 94.5305 9.06166 94.6923 8.64095L96.181 4.30437H98.8994L99.7409 14.5309H97.2489L96.9253 9.93544C96.893 9.70891 96.893 9.45001 96.893 9.15874C96.893 8.86748 96.893 8.64095 96.893 8.47913V8.22023H96.8606C96.6341 8.93221 96.4399 9.51473 96.2781 9.93544L95.2101 12.9128H93.0742L92.0062 9.93544L91.4237 8.22023H91.3913C91.4237 8.83512 91.4237 9.41764 91.3913 9.93544L91.0677 14.5309H88.5758Z" fill="black"/>
</svg>
