<svg width="18" height="18" viewBox="0 0 18 18" fill="none" xmlns="http://www.w3.org/2000/svg">
<path d="M9.75 1.5L6.75 1.5C3 1.5 2.25 3.17027 2.25 6.51081L2.25 11.5135C2.25 15.3243 3.5025 16.3459 6 16.5L7.5 16.5L10.125 16.5M14.25 7.5L14.25 6" stroke="#2A8640" stroke-width="1.5" stroke-miterlimit="10" stroke-linecap="round" stroke-linejoin="round"/>
<path d="M14.25 6L9.75 1.5L9.75 3.75C9.75 5.25 10.5 6 12 6L14.25 6Z" stroke="#2A8640" stroke-width="1.5" stroke-linecap="round" stroke-linejoin="round"/>
<path d="M6.7437 9.75C7.31933 9.75 7.7437 9.87605 8.01681 10.1282C8.29412 10.3761 8.43277 10.7227 8.43277 11.1681C8.43277 11.3697 8.40336 11.563 8.34454 11.7479C8.28571 11.9286 8.18698 12.0903 8.04832 12.2332C7.91387 12.3761 7.73529 12.4895 7.51261 12.5735C7.29412 12.6576 7.02311 12.6996 6.69958 12.6996H6.32143V14.25H5.25V9.75H6.7437ZM6.70588 10.6261H6.32143V11.8235H6.60504C6.7521 11.8235 6.88025 11.8025 6.9895 11.7605C7.10294 11.7185 7.19118 11.6513 7.2542 11.5588C7.31723 11.4664 7.34874 11.3466 7.34874 11.1996C7.34874 11.0147 7.29622 10.8739 7.19118 10.7773C7.08613 10.6765 6.92437 10.6261 6.70588 10.6261Z" fill="#2A8640"/>
<path d="M12.9888 11.9307C12.9888 12.4433 12.8921 12.8718 12.6988 13.2164C12.5056 13.5609 12.2283 13.8193 11.8669 13.9916C11.5056 14.1639 11.0749 14.25 10.5749 14.25H9.21985V9.75H10.7009C11.1757 9.75 11.5833 9.83403 11.9236 10.0021C12.2682 10.1702 12.5308 10.416 12.7114 10.7395C12.8963 11.0588 12.9888 11.4559 12.9888 11.9307ZM11.8795 11.9685C11.8795 11.6618 11.8354 11.4097 11.7472 11.2122C11.6631 11.0147 11.535 10.8676 11.3627 10.771C11.1946 10.6744 10.9846 10.6261 10.7325 10.6261H10.2913V13.3676H10.6379C11.0623 13.3676 11.3753 13.2521 11.577 13.021C11.7787 12.7857 11.8795 12.4349 11.8795 11.9685Z" fill="#2A8640"/>
<path d="M14.9256 14.25H13.8667V9.75H16.4823V10.6197H14.9256V11.6408H16.3688V12.5105H14.9256V14.25Z" fill="#2A8640"/>
</svg>
