<svg width="18" height="18" viewBox="0 0 18 18" fill="none" xmlns="http://www.w3.org/2000/svg">
<path d="M9.0118 0.627638C8.5518 0.627638 8.17847 1.00097 8.17847 1.46097V3.12764C8.17847 3.58764 8.5518 3.96097 9.0118 3.96097C9.4718 3.96097 9.84513 3.58764 9.84513 3.12764V1.46097C9.84513 1.00097 9.4718 0.627638 9.0118 0.627638ZM3.6993 2.81514C3.48597 2.81514 3.2893 2.91264 3.1268 3.07598C2.80097 3.40098 2.80097 3.92264 3.1268 4.24764L4.24597 5.39347C4.5718 5.71847 5.1193 5.7193 5.4443 5.39347C5.7693 5.06764 5.77013 4.52015 5.4443 4.19515L4.29846 3.07598C4.13513 2.91264 3.91263 2.81514 3.6993 2.81514ZM14.2985 2.84098C14.0851 2.84098 13.8885 2.91264 13.7251 3.07598L12.5793 4.19515C12.2543 4.52098 12.2543 5.06764 12.5793 5.39347C12.9051 5.71847 13.4518 5.71847 13.7776 5.39347L14.8968 4.24764C15.2226 3.9218 15.2226 3.40098 14.8968 3.07598C14.7343 2.91264 14.5118 2.84098 14.2985 2.84098ZM9.0118 4.79431C6.71097 4.79431 4.84513 6.66014 4.84513 8.96098C4.84513 11.2618 6.71097 13.1276 9.0118 13.1276C11.3126 13.1276 13.1785 11.2618 13.1785 8.96098C13.1785 6.66014 11.3126 4.79431 9.0118 4.79431ZM1.5118 8.12764C1.0518 8.12764 0.678467 8.50098 0.678467 8.96098C0.678467 9.42098 1.0518 9.79431 1.5118 9.79431H3.17847C3.63847 9.79431 4.0118 9.42098 4.0118 8.96098C4.0118 8.50098 3.63847 8.12764 3.17847 8.12764H1.5118ZM14.8451 8.12764C14.3851 8.12764 14.0118 8.50098 14.0118 8.96098C14.0118 9.42098 14.3851 9.79431 14.8451 9.79431H16.5118C16.9718 9.79431 17.3451 9.42098 17.3451 8.96098C17.3451 8.50098 16.9718 8.12764 16.5118 8.12764H14.8451ZM4.84513 12.2943C4.6318 12.2935 4.4093 12.366 4.24597 12.5285L3.10014 13.6743C2.7743 13.9993 2.77597 14.5201 3.10014 14.846C3.42514 15.1726 3.9718 15.171 4.29846 14.846L5.4443 13.7268C5.77013 13.4018 5.76846 12.8552 5.4443 12.5285C5.2818 12.366 5.05847 12.2951 4.84513 12.2943ZM13.1785 12.2943C12.9651 12.2943 12.7418 12.366 12.5793 12.5285C12.2543 12.8543 12.2535 13.4018 12.5793 13.7268L13.7518 14.8726C14.0768 15.1976 14.5985 15.1985 14.9235 14.8726C15.2485 14.5468 15.2493 13.9993 14.9235 13.6743L13.7776 12.5285C13.6143 12.366 13.3918 12.2943 13.1785 12.2943ZM9.0118 13.961C8.5518 13.961 8.17847 14.3343 8.17847 14.7943V16.461C8.17847 16.921 8.5518 17.2943 9.0118 17.2943C9.4718 17.2943 9.84513 16.921 9.84513 16.461V14.7943C9.84513 14.3343 9.4718 13.961 9.0118 13.961Z" fill="white"/>
</svg>
