<svg width="32" height="32" viewBox="0 0 32 32" fill="none" xmlns="http://www.w3.org/2000/svg">
<circle cx="16" cy="16" r="16" fill="#F5F6F7"/>
<path d="M10.4359 10.5768L12.8734 10.0143C13.1382 9.95338 13.4101 10.0917 13.5179 10.3401L14.6429 12.965C14.7413 13.1947 14.6757 13.4642 14.4812 13.6213L13.0609 14.7837C13.9046 16.5814 15.3788 18.0766 17.2139 18.9368L18.3764 17.5165C18.5358 17.322 18.8029 17.2564 19.0326 17.3548L21.6576 18.4798C21.9084 18.5899 22.0466 18.8618 21.9857 19.1266L21.4232 21.5641C21.3646 21.8172 21.1396 22 20.8748 22C14.8726 22 10 17.1368 10 11.1252C10 10.8627 10.1805 10.6354 10.4359 10.5768Z" fill="#5C5C5C"/>
</svg>
