<svg width="40" height="40" viewBox="0 0 40 40" fill="none" xmlns="http://www.w3.org/2000/svg">
<circle opacity="0.94" cx="20" cy="20" r="20" fill="white"/>
<path fill-rule="evenodd" clip-rule="evenodd" d="M24.1162 10.8386H24.1183C24.0293 10.3301 24.0693 10 24.0693 10H20.5046V23.2999C20.5046 23.7599 20.5047 24.2055 20.3441 24.6482C20.0843 25.3663 19.5288 26.0144 18.79 26.302C17.8132 26.6818 17.0246 26.69 16.1438 26.2355L16.1414 26.2324C16.0224 26.171 15.9011 26.1007 15.7774 26.0215C14.7177 25.3012 14.5245 24.2213 14.5297 23.4582C14.6536 22.4212 15.0744 21.8406 15.8673 21.2454C17.0015 20.441 18.4188 20.8953 18.4188 20.8953V18.1904L18.4209 18.1904V17.4193C17.7557 17.3264 17.0794 17.3361 16.4172 17.4481C15.9779 17.5248 15.5483 17.647 15.1359 17.8128C14.4748 18.0599 13.8609 18.412 13.3194 18.8548C12.7053 19.3687 12.1882 19.9822 11.7911 20.6678C11.641 20.9187 11.0731 21.9203 11.0038 23.552C10.9638 24.4781 11.2512 25.4334 11.388 25.8306V25.8385C11.3931 25.852 11.3989 25.8673 11.4056 25.8844C11.5155 26.1642 11.8441 26.9056 12.3578 27.5386C12.798 28.0774 13.3182 28.5499 13.9015 28.9407C13.7195 28.7625 13.5481 28.5744 13.3883 28.3772C12.838 27.697 12.5019 26.8951 12.4159 26.6684L12.4158 26.6657C12.5013 26.8961 12.8384 27.6964 13.3878 28.3734C13.5476 28.5706 13.719 28.7587 13.9011 28.9369L13.9097 28.9432C15.6341 30.0756 17.5496 29.9989 17.5496 29.9989C17.5772 29.9977 17.6101 29.9967 17.6479 29.9955C18.0664 29.9827 19.0944 29.9511 20.2516 29.4229C21.6517 28.7844 22.4459 27.8362 22.4459 27.8362C22.4519 27.829 22.4593 27.8204 22.4679 27.8105C22.4735 27.804 22.4796 27.7969 22.4863 27.7892C22.6725 27.5741 23.2537 26.9028 23.6416 25.9223C23.9656 25.1058 24.0719 24.1259 24.0719 23.7337V16.6891C24.1183 16.7149 24.6927 17.0796 24.6927 17.0796C24.6927 17.0796 25.5253 17.591 26.8199 17.9244C27.7475 18.1628 29 18.2124 29 18.2124V15.5404L29 14.8014C28.5598 14.846 27.6671 14.7152 26.7605 14.2767C26.6195 14.2084 26.4827 14.1321 26.3509 14.0483C26.4645 14.1671 27.0453 14.7543 27.791 15.1149C28.1656 15.2961 28.5599 15.4362 28.9666 15.5326C28.5592 15.4364 28.1642 15.2963 27.7888 15.1148C27.0432 14.7543 26.4624 14.1671 26.3488 14.0483C25.9642 13.8038 25.6116 13.5152 25.2985 13.1889C24.5181 12.3244 24.2229 11.4517 24.1162 10.8386ZM17.8935 27.3451C17.5415 27.2603 17.187 27.1007 16.8104 26.8597C16.6677 26.7645 16.5345 26.6569 16.4125 26.5386C16.5339 26.6568 16.6663 26.7643 16.8083 26.8596C17.1857 27.1011 17.5408 27.2607 17.8935 27.3451Z" fill="#5C5C5C"/>
<path d="M11.4497 26.0051L11.4066 25.887C11.4229 25.933 11.4359 25.9679 11.4442 25.9903L11.4497 26.0051Z" fill="#5C5C5C"/>
</svg>
