<svg width="32" height="32" viewBox="0 0 32 32" fill="none" xmlns="http://www.w3.org/2000/svg">
<circle cx="16" cy="16" r="16" fill="#F5F6F7"/>
<path d="M22.6533 15.6067C22.4266 11.74 18.9133 8.76002 14.8667 9.42668C12.08 9.88668 9.84666 12.1467 9.41333 14.9333C9.15999 16.5467 9.49334 18.0733 10.22 19.3333L9.62666 21.54C9.49333 22.04 9.95332 22.4933 10.4467 22.3533L12.62 21.7533C13.6067 22.3333 14.76 22.6667 15.9933 22.6667C19.7533 22.6667 22.8733 19.3533 22.6533 15.6067ZM19.2533 18.48C19.1933 18.6 19.12 18.7133 19.0266 18.82C18.86 19 18.68 19.1333 18.48 19.2133C18.28 19.3 18.06 19.34 17.8267 19.34C17.4867 19.34 17.12 19.26 16.74 19.0933C16.3533 18.9267 15.9733 18.7067 15.5933 18.4333C15.2067 18.1533 14.8467 17.84 14.5 17.5C14.1533 17.1533 13.8466 16.7867 13.5666 16.4067C13.2933 16.0267 13.0733 15.6467 12.9133 15.2667C12.7533 14.8867 12.6733 14.52 12.6733 14.1733C12.6733 13.9467 12.7133 13.7267 12.7933 13.5267C12.8733 13.32 13 13.1333 13.18 12.9667C13.3933 12.7533 13.6267 12.6533 13.8733 12.6533C13.9667 12.6533 14.06 12.6733 14.1466 12.7133C14.2333 12.7533 14.3133 12.8133 14.3733 12.9L15.1466 13.9933C15.2066 14.08 15.2533 14.1533 15.28 14.2267C15.3133 14.3 15.3267 14.3667 15.3267 14.4333C15.3267 14.5133 15.3 14.5933 15.2533 14.6733C15.2067 14.7533 15.1466 14.8333 15.0666 14.9133L14.8133 15.18C14.7733 15.22 14.76 15.26 14.76 15.3133C14.76 15.34 14.7666 15.3667 14.7733 15.3933C14.7866 15.42 14.7933 15.44 14.8 15.46C14.86 15.5733 14.9667 15.7133 15.1133 15.8867C15.2667 16.06 15.4267 16.24 15.6 16.4133C15.78 16.5933 15.9533 16.7533 16.1333 16.9067C16.3067 17.0533 16.4533 17.1533 16.5666 17.2133C16.5866 17.22 16.6067 17.2333 16.6267 17.24C16.6533 17.2533 16.68 17.2533 16.7133 17.2533C16.7733 17.2533 16.8133 17.2333 16.8533 17.1933L17.1066 16.94C17.1933 16.8533 17.2733 16.7933 17.3467 16.7533C17.4267 16.7067 17.5 16.68 17.5867 16.68C17.6533 16.68 17.72 16.6933 17.7933 16.7267C17.8667 16.76 17.9466 16.8 18.0266 16.86L19.1333 17.6467C19.22 17.7067 19.28 17.78 19.32 17.86C19.3533 17.9467 19.3733 18.0267 19.3733 18.12C19.3333 18.2333 19.3067 18.36 19.2533 18.48Z" fill="#5C5C5C"/>
</svg>
